PathFileType	4	(X/Y/Z)	C:/Users/opensim2020/Desktop/walking_exp_matlab/subject02_walking08_straight_04.trc																																																																																																																									
DataRate	CameraRate	NumFrames	NumMarkers	Units	OrigDataRate	OrigDataStartFrame	OrigNumFrames																																																																																																																					
100	100	4	41	mm	100	3017	241																																																																																																																					
Frame#	Time	LFHD			RFHD			LBHD			RBHD			C7			T10			CLAV			STRN			RBAK			LSHO			LUPA			LELB			LFRM			LWRA			LWRB			LFIN			RSHO			RUPA			RELB			RFRM			RWRA			RWRB			RFIN			LASI			RASI			LPSI			RPSI			LTHI			LKNE			LTIB			LANK			LHEE			LTOE			RTHI			RKNE			RTIB			RANK			RHEE			RTOE			*39			*40		
		X1	Y1	Z1	X2	Y2	Z2	X3	Y3	Z3	X4	Y4	Z4	X5	Y5	Z5	X6	Y6	Z6	X7	Y7	Z7	X8	Y8	Z8	X9	Y9	Z9	X10	Y10	Z10	X11	Y11	Z11	X12	Y12	Z12	X13	Y13	Z13	X14	Y14	Z14	X15	Y15	Z15	X16	Y16	Z16	X17	Y17	Z17	X18	Y18	Z18	X19	Y19	Z19	X20	Y20	Z20	X21	Y21	Z21	X22	Y22	Z22	X23	Y23	Z23	X24	Y24	Z24	X25	Y25	Z25	X26	Y26	Z26	X27	Y27	Z27	X28	Y28	Z28	X29	Y29	Z29	X30	Y30	Z30	X31	Y31	Z31	X32	Y32	Z32	X33	Y33	Z33	X34	Y34	Z34	X35	Y35	Z35	X36	Y36	Z36	X37	Y37	Z37	X38	Y38	Z38	X39	Y39	Z39	X40	Y40	Z40	X41	Y41	Z41
																																																																																																																												
31	0.3	-704.70288	1724.1593	-1472.2428	-724.12183	1697.57983	-1331.75232	-835.31628	1655.00476	-1501.39734	-867.01959	1628.06616	-1363.97302	-905.15167	1514.23706	-1431.39783	-968.76978	1238.98083	-1421.75732	-769.49829	1438.14294	-1447.21472	-723.97821	1265.47412	-1442.27368	-967.79889	1340.41394	-1367.06616	-842.40308	1486.80469	-1612.90674	-853.91571	1292.4054	-1704.10803	-840.21039	1153.14136	-1732.47961	-792.79755	1029.21472	-1753.5885	-695.9046	931.11383	-1738.09314	-744.90747	916.47711	-1762.00696	-705.41827	867.04462	-1777.00269	-824.11841	1471.44543	-1247.33716	-871.2536	1282.51306	-1168.1676	-878.04474	1135.42358	-1158.88721	-864.30939	1015.78174	-1142.1333	-829.38641	885.37927	-1161.84204	-877.45892	886.40894	-1131.81262	-847.31219	819.8399	-1129.73181	-759.64423	961.97296	-1570.02588	-726.00488	967.51379	-1317.46655	-953.79578	1020.87915	-1463.40161	-946.63788	1026.12341	-1347.0769	-901.79187	670.07629	-1615.69592	-974.54291	487.18228	-1595.01282	-1120.14331	360.45804	-1589.77795	-1234.83325	163.6828	-1564.17749	-1269.3252	162.30873	-1509.31262	-1135.15137	37.66405	-1566.27563	-737.55957	670.91974	-1238.6615	-685.80762	471.28873	-1290.32043	-695.45172	282.50253	-1288.354	-690.09326	91.1051	-1330.10669	-721.50513	40.46127	-1388.0791	-537.04395	42.35002	-1318.76636	-815.07166	1788.25989	-1391.43933	-2845.22803	1034.08875	3360.29614
32	0.31	-694.87109	1725.11401	-1470.15735	-714.61224	1698.33813	-1329.66211	-825.57892	1656.19702	-1499.66602	-857.53162	1629.15491	-1362.35779	-895.53448	1514.9519	-1430.03821	-958.48883	1239.74927	-1420.23267	-759.46893	1439.25818	-1445.27466	-713.38721	1266.70776	-1440.18372	-957.57294	1341.13916	-1365.59229	-832.51495	1488.05518	-1611.4762	-846.38477	1292.98572	-1701.47095	-835.43066	1153.12085	-1727.92749	-791.5849	1027.98547	-1748.84436	-697.01147	926.95276	-1732.97278	-746.7522	913.87897	-1756.73315	-708.87415	862.98224	-1771.29724	-814.54803	1472.85901	-1245.75439	-860.07208	1283.74768	-1166.46167	-866.11157	1136.55566	-1157.49585	-852.15735	1016.99158	-1140.18994	-817.61945	886.57172	-1160.1532	-865.58667	887.67303	-1129.40955	-835.53143	821.08807	-1127.85193	-748.61768	962.76233	-1566.0675	-715.72198	969.41626	-1314.62793	-943.26941	1021.76392	-1462.40906	-936.30157	1026.88428	-1345.75452	-887.73889	669.06995	-1614.2644	-956.20209	485.97897	-1595.90601	-1104.14453	363.00174	-1589.71765	-1223.71497	170.19418	-1564.97278	-1257.32898	170.72398	-1509.36414	-1133.61047	37.56968	-1565.58447	-726.88953	670.99939	-1238.05896	-679.20947	470.72369	-1289.56384	-692.5976	282.32166	-1288.78259	-689.23907	91.27311	-1330.2981	-721.40417	40.49279	-1388.21692	-536.24725	41.95386	-1319.52637	-805.35217	1789.36157	-1389.48706	-2845.25269	1033.98926	3360.31592
33	0.32	-685.4082	1726.22754	-1468.46765	-705.24017	1699.36133	-1327.93347	-815.93884	1657.48633	-1498.10193	-848.13678	1630.31543	-1360.86365	-885.97076	1515.78772	-1428.74805	-948.30035	1240.59485	-1418.38794	-749.63824	1440.68835	-1443.9447	-703.24524	1268.1925	-1438.56311	-947.62653	1341.91541	-1364.36719	-822.69598	1489.19458	-1609.93127	-838.92352	1293.76208	-1698.87207	-830.90796	1153.56116	-1723.99622	-790.48328	1026.96021	-1744.13269	-698.70099	923.13708	-1727.67188	-748.90186	911.63202	-1751.59851	-712.59601	859.05426	-1765.37549	-805.22668	1474.34448	-1244.39819	-849.12396	1284.92517	-1164.86145	-854.1897	1137.85425	-1155.80542	-840.02917	1018.63232	-1138.73389	-805.47644	887.93384	-1158.08936	-853.32965	889.12122	-1127.22021	-823.36853	822.38	-1125.80078	-737.9126	963.61212	-1562.32202	-705.88275	971.10248	-1311.77063	-933.37402	1022.59692	-1461.23621	-926.14465	1027.50403	-1344.42493	-873.16199	667.71472	-1613.25806	-937.08923	484.40353	-1596.48486	-1086.67737	365.15314	-1589.98999	-1210.85535	176.28003	-1565.5802	-1244.24255	179.27867	-1509.68286	-1130.89905	37.78237	-1565.13599	-717.29755	671.29169	-1237.11072	-674.08551	470.44272	-1289.29492	-689.88171	282.09354	-1288.84961	-688.67517	91.59615	-1330.81201	-721.24304	40.58575	-1388.40869	-535.52747	41.46359	-1320.0127	-795.85651	1790.58167	-1387.90869	-2845.22852	1033.81055	3360.30225
34	0.33	-675.89948	1727.59668	-1466.80298	-695.98944	1700.61035	-1326.47522	-806.41412	1658.75195	-1496.71106	-838.7594	1631.45972	-1359.53503	-876.32861	1516.73499	-1427.47473	-938.33777	1241.54651	-1416.64307	-739.85718	1441.92529	-1442.43274	-693.10571	1269.34644	-1436.65295	-937.79175	1342.86084	-1362.9856	-812.89313	1490.16602	-1608.22607	-831.4314	1294.47937	-1696.49451	-826.09314	1153.75208	-1719.677	-789.43927	1026.10864	-1739.50525	-700.62646	919.66357	-1722.67786	-751.01892	909.42328	-1746.43823	-716.5144	855.48419	-1759.42737	-795.8457	1475.85803	-1243.06567	-838.23889	1286.35559	-1163.52881	-842.29022	1139.22498	-1154.15796	-828.21948	1019.97668	-1136.83044	-793.10669	889.21643	-1156.43323	-840.72937	890.5932	-1125.0166	-810.82367	823.81232	-1123.77869	-727.32434	964.55206	-1558.82349	-696.38751	972.4577	-1309.05493	-923.81458	1023.40405	-1460.01843	-916.17847	1028.15491	-1343.13904	-857.83826	666.05725	-1612.00732	-917.34424	482.52884	-1596.79749	-1068.32068	366.92758	-1590.39941	-1197.09839	182.89737	-1566.27539	-1230.50171	188.07982	-1510.07507	-1126.57446	39.7438	-1564.69861	-709.05963	671.90979	-1235.90076	-669.06592	470.10925	-1288.69165	-687.10974	281.99158	-1288.46985	-688.18652	91.82755	-1330.83826	-721.09375	40.65633	-1388.49487	-534.98401	41.17852	-1320.34888	-786.42572	1791.63354	-1386.25012	-2845.10669	1034.15894	3360.22974
